<?xml version="1.0" standalone="no"?> <!DOCTYPE svg PUBLIC "-//W3C//DTD SVG 1.0//EN" "http://www.w3.org/TR/2001/REC-SVG-20010904/DTD/svg10.dtd" > <svg xmlns="http://www.w3.org/2000/svg" width="100%" height="100%">
<defs >
<font id="helveticaneuew23forskybd" horiz-adv-x="1173" ><font-face
    font-family="HelveticaNeueW23foSKY-Bd"
    units-per-em="2048"
    panose-1="2 11 8 4 2 2 2 2 2 4"
    ascent="1700"
    descent="-750"
    alphabetic="0" />
<missing-glyph horiz-adv-x="1049" d="M1049 1470V0H0V1470H1049ZM946 102V1366H102V102H946ZM530 1247Q640 1247 712 1173Q784 1099 784 979Q784 897 751 843Q717 789 653 731Q619 701 599 677T570 636Q555 601 555 479H461L457 519Q457 551 459 578T465 629Q474
676 512 726Q551 777 585 808Q619 839 649 878Q680 918 680 971Q680 1042 633 1094Q586 1145 524 1145Q457 1145 413 1098T356 951L254 967Q268 1105 339 1176T530 1247ZM455 377H569V240H455V377Z" />
<glyph unicode=" " glyph-name="space" horiz-adv-x="569" />
<glyph unicode="!" glyph-name="exclam" horiz-adv-x="569" d="M436 1462V1069L356 438H211L133 1069V1462H436ZM446 315V0H125V315H446Z" />
<glyph unicode="&quot;" glyph-name="quotedbl" horiz-adv-x="948" d="M393 1462V805H174V1462H393ZM774 1462V805H555V1462H774Z" />
<glyph unicode="#" glyph-name="numbersign" horiz-adv-x="1139" d="M580 1434L522 1028H721L776 1434H975L920 1028H1071V844H893L858 590H1010V406H831L776 0H578L633 406H436L380 6L378 0H180L238 406H68V590H262L299 844H129V1028H324L381 1434H580ZM498 844L461
590H659L694 844H498Z" />
<glyph unicode="$" glyph-name="dollar" horiz-adv-x="1139" d="M508 1655H629V1497Q837 1474 957 1364T1090 1061H799Q795 1146 746 1201Q698 1256 629 1256V895Q845 843 943 781Q1041 721 1090 636Q1141 550 1141 398Q1141 274 1043 150Q968 65 868 21T629 -35V-209H508V-35Q275
-16 149 109T-2 475H289V468Q289 416 304 372T348 295T417 238T508 205V633Q494 638 476 643T438 653Q339 676 263 711T136 795T59 910T33 1059Q33 1249 163 1364Q295 1481 508 1497V1655ZM324 1087Q324 1019 368 982T508 924V1257H505Q429 1257 377 1211Q324 1164
324 1087ZM629 205Q726 216 787 268Q850 322 850 406Q850 483 802 524Q753 565 629 598V205Z" />
<glyph unicode="%" glyph-name="percent" horiz-adv-x="2048" d="M1542 1479L698 -45H520L1368 1479H1542ZM502 1462Q669 1462 753 1356T838 1050Q838 864 748 764T492 664Q320 664 237 763T154 1057Q154 1244 245 1353Q336 1462 502 1462ZM362 1051Q362 915 395
866Q429 817 494 817Q559 817 594 871T629 1050Q629 1185 597 1247T501 1309Q431 1309 397 1247T362 1051ZM1559 770Q1727 770 1810 667T1894 368Q1894 183 1803 77Q1713 -29 1548 -29Q1382 -29 1296 76T1210 374Q1210 556 1302 663Q1394 770 1559 770ZM1419 373Q1419
233 1452 179Q1485 125 1550 125Q1620 125 1653 186T1686 372Q1686 493 1655 554T1557 616Q1485 616 1452 558T1419 373Z" />
<glyph unicode="&amp;" glyph-name="ampersand" horiz-adv-x="1403" d="M636 1479Q811 1479 924 1384Q1036 1290 1036 1128Q1036 904 776 764L965 532Q983 567 997 611T1018 707H1270Q1256 592 1220 504T1128 346L1425 0H1069L950 145Q862 57 762 14T539 -29Q334
-29 200 90Q66 210 66 409Q66 540 147 648T393 834Q310 934 281 1003Q254 1073 254 1145Q254 1289 366 1383Q478 1479 636 1479ZM518 1155Q518 1108 539 1065Q561 1020 633 936Q717 988 749 1033Q782 1079 782 1144Q782 1203 742 1243Q703 1284 648 1284Q593 1284
555 1246Q518 1209 518 1155ZM342 403Q342 326 405 268Q469 211 551 211Q583 211 613 217T673 239T733 279T797 340L547 645Q447 603 395 541T342 403Z" />
<glyph unicode="&apos;" glyph-name="quotesingle" horiz-adv-x="569" d="M395 1462V805H176V1462H395Z" />
<glyph unicode="(" glyph-name="parenleft" horiz-adv-x="606" d="M621 1497Q512 1293 455 1057T397 569Q397 318 450 84T618 -373H377Q244 -156 175 83Q106 321 106 549Q106 789 176 1045Q246 1303 377 1497H621Z" />
<glyph unicode=")" glyph-name="parenright" horiz-adv-x="606" d="M229 1497Q296 1388 346 1275T431 1042Q500 805 500 573Q500 337 430 79Q361 -181 230 -372H-14Q98 -158 153 73T209 553Q209 810 155 1045T-12 1497H229Z" />
<glyph unicode="*" glyph-name="asterisk" horiz-adv-x="834" d="M496 1462V1206L733 1296L788 1139L547 1059L698 858L563 758L412 969L268 758L131 858L283 1059L45 1139L100 1296L332 1206V1462H496Z" />
<glyph unicode="+" glyph-name="plus" horiz-adv-x="1229" d="M725 1034V627H1133V408H725V0H506V408H98V627H506V1034H725Z" />
<glyph unicode="," glyph-name="comma" horiz-adv-x="569" d="M446 315V-6Q446 -123 363 -218Q280 -313 127 -340V-193Q194 -177 233 -124Q273 -72 273 -14V0H125V315H446Z" />
<glyph unicode="-" glyph-name="hyphen" horiz-adv-x="834" d="M725 684V434H109V684H725Z" />
<glyph unicode="." glyph-name="period" horiz-adv-x="569" d="M444 315V0H123V315H444Z" />
<glyph unicode="/" glyph-name="slash" horiz-adv-x="760" d="M782 1497L211 -35H-23L549 1497H782Z" />
<glyph unicode="0" glyph-name="zero" horiz-adv-x="1139" d="M567 1462Q824 1462 960 1275T1096 723Q1096 352 962 162T567 -29Q311 -29 177 161T43 723Q43 1085 176 1273T567 1462ZM334 721Q334 498 364 398Q395 298 446 255T567 211Q682 211 743 323Q805 436
805 722Q805 997 743 1110Q681 1223 566 1223Q456 1223 395 1114Q334 1005 334 721Z" />
<glyph unicode="1" glyph-name="one" horiz-adv-x="1139" d="M803 1434V0H512V930H152V1149H171Q348 1149 449 1221T571 1434H803Z" />
<glyph unicode="2" glyph-name="two" horiz-adv-x="1139" d="M596 1462Q806 1462 946 1336Q1087 1211 1087 1014Q1087 876 1021 765Q954 653 744 521Q597 428 527 367Q458 307 418 250H1096V0H43Q43 140 93 251Q145 363 238 447Q286 491 375 556T599 711Q702 778
749 845T797 991Q797 1088 738 1150Q679 1212 582 1212Q528 1212 486 1190T416 1124T371 1020T354 883H76V910Q76 1158 217 1310Q360 1462 596 1462Z" />
<glyph unicode="3" glyph-name="three" horiz-adv-x="1139" d="M565 1462Q760 1462 903 1349Q1047 1236 1047 1065Q1047 1013 1034 967T996 882T933 816T846 772V768Q965 740 1033 651Q1100 563 1100 442Q1100 231 946 101Q792 -29 567 -29Q326 -29 180 108Q35
244 35 477V494H311Q318 358 383 285T563 211Q668 211 732 275Q797 340 797 436Q797 544 733 596Q669 649 496 649H465V854L514 852Q638 852 704 898T770 1032Q770 1118 712 1170Q654 1223 567 1223Q469 1223 409 1159T346 967H70Q77 1193 213 1327Q348 1462 565
1462Z" />
<glyph unicode="4" glyph-name="four" horiz-adv-x="1139" d="M915 1434V571H1106V332H915V0H639V332H33V598L655 1434H915ZM633 1069L262 571H639V1069H633Z" />
<glyph unicode="5" glyph-name="five" horiz-adv-x="1139" d="M1024 1434V1194H432L375 868L379 864Q433 918 499 946T659 975Q858 975 980 838Q1102 701 1102 487Q1102 273 948 122Q796 -29 576 -29Q344 -29 193 92Q43 214 37 426H328Q339 327 403 269Q467 211
563 211Q669 211 740 292Q811 374 811 487Q811 606 742 681Q674 756 562 756Q485 756 435 728T344 641H82L223 1434H1024Z" />
<glyph unicode="6" glyph-name="six" horiz-adv-x="1139" d="M606 1462Q798 1462 922 1356Q1045 1250 1071 1065H795Q786 1107 768 1140T724 1196T668 1231T602 1243Q484 1243 411 1126Q338 1008 328 807L332 803Q392 888 470 925T654 963Q772 963 882 898Q993
833 1044 724Q1096 616 1096 496Q1096 273 953 121Q810 -29 594 -29Q324 -29 183 164Q43 358 43 712Q43 1034 192 1248Q340 1462 606 1462ZM354 477Q354 369 418 290Q482 211 586 211Q680 211 742 288Q805 364 805 473Q805 584 747 663Q688 743 584 743Q479 743
416 669Q354 595 354 477Z" />
<glyph unicode="7" glyph-name="seven" horiz-adv-x="1139" d="M1059 1434V1184Q848 994 723 661Q660 494 627 330T590 0H279Q305 319 429 617Q556 917 760 1163H80V1434H1059Z" />
<glyph unicode="8" glyph-name="eight" horiz-adv-x="1139" d="M572 1462Q796 1462 923 1341Q1051 1221 1051 1076Q1051 971 999 892T842 776V772Q908 756 958 724T1042 647T1093 545T1110 422Q1110 216 955 93Q800 -29 573 -29Q337 -29 183 91Q29 211 29 420Q29
557 99 649T299 772V776Q196 806 142 884T88 1071Q88 1246 230 1354Q372 1462 572 1462ZM352 1044Q352 961 413 909Q475 856 571 856Q668 856 727 907Q786 958 786 1044Q786 1134 731 1188T570 1243Q473 1243 412 1186Q352 1130 352 1044ZM319 434Q319 330 392
260Q465 190 573 190Q678 190 749 258Q819 327 819 432Q819 531 748 596Q677 662 571 662Q465 662 392 601Q319 541 319 434Z" />
<glyph unicode="9" glyph-name="nine" horiz-adv-x="1139" d="M546 1462Q816 1462 956 1268Q1096 1074 1096 722Q1096 398 946 184Q796 -29 532 -29Q345 -29 219 76Q94 180 68 369H344Q360 290 414 239Q466 190 537 190Q654 190 724 300T811 627L807 631Q749 549
671 510T484 471Q365 471 256 535Q147 599 94 707Q43 815 43 939Q43 1162 184 1312Q325 1462 546 1462ZM334 961Q334 844 393 767Q452 690 553 690Q657 690 720 763Q784 836 784 956Q784 1069 719 1146Q654 1223 552 1223Q459 1223 396 1147Q334 1070 334 961Z"
/>
<glyph unicode=":" glyph-name="colon" horiz-adv-x="569" d="M446 1040V725H125V1040H446ZM446 315V0H125V315H446Z" />
<glyph unicode=";" glyph-name="semicolon" horiz-adv-x="569" d="M446 1040V725H125V1040H446ZM446 315V-6Q446 -123 363 -218Q280 -313 127 -340V-193Q194 -177 233 -124Q273 -72 273 -14V0H125V315H446Z" />
<glyph unicode="&lt;" glyph-name="less" horiz-adv-x="1229" d="M1135 817L383 518L1135 219V-17L94 397V639L1135 1053V817Z" />
<glyph unicode="=" glyph-name="equal" horiz-adv-x="1229" d="M1133 846V627H98V846H1133ZM1133 408V188H98V408H1133Z" />
<glyph unicode="&gt;" glyph-name="greater" horiz-adv-x="1229" d="M94 1053L1135 639V397L94 -16V219L846 518L94 817V1053Z" />
<glyph unicode="?" glyph-name="question" horiz-adv-x="1139" d="M564 1497Q804 1497 938 1380Q1073 1264 1073 1091Q1069 999 1053 951Q1038 905 1008 862T924 773L805 686Q760 647 738 615Q715 583 700 517V438H424V530Q431 633 475 712T611 860Q657 895 685
923T727 973Q752 1016 752 1073Q752 1164 708 1210T578 1257Q527 1257 488 1239T422 1186T381 1102T367 991H66Q72 1218 208 1357Q345 1497 564 1497ZM717 315V0H395V315H717Z" />
<glyph unicode="@" glyph-name="at" horiz-adv-x="1638" d="M852 1497Q1144 1497 1355 1318Q1565 1139 1565 872Q1565 706 1491 570Q1417 436 1296 357Q1174 279 1082 279Q1019 279 980 310T934 394H930Q892 334 834 305T709 276Q582 276 485 379Q387 483 387
628Q387 836 516 992Q646 1149 833 1149Q909 1149 974 1114T1073 1006L1106 1116H1274L1149 604Q1141 575 1137 557T1130 530Q1129 522 1129 515T1128 500Q1128 478 1137 466T1164 453Q1255 453 1330 563Q1405 674 1405 829Q1405 1059 1252 1196Q1098 1333 850
1333Q593 1333 431 1162Q270 992 270 727Q270 462 439 296Q609 129 874 129Q1000 129 1118 173Q1234 216 1315 297H1487Q1376 131 1212 48Q1048 -35 862 -35Q534 -35 304 186Q74 407 74 731Q74 1053 304 1275Q533 1497 852 1497ZM596 653Q596 574 640 522Q683 471
756 471Q859 471 933 569Q1008 666 1008 780Q1008 849 964 902Q921 954 848 954Q743 954 670 858Q596 761 596 653Z" />
<glyph unicode="A" glyph-name="A" horiz-adv-x="1403" d="M870 1462L1417 1H1083L973 326H426L311 0H-14L541 1462H870ZM700 1102L510 565H889L705 1102H700Z" />
<glyph unicode="B" glyph-name="B" horiz-adv-x="1442" d="M840 1462Q1064 1462 1180 1374T1296 1101Q1296 988 1244 914T1098 795Q1232 755 1299 661T1366 424Q1366 222 1220 111Q1074 0 859 0H141V1462H840ZM794 870Q880 870 932 914T985 1044Q985 1131 932
1171T772 1212H463V870H794ZM815 250Q923 250 983 296T1044 442Q1044 545 987 598T820 651H463V250H815Z" />
<glyph unicode="C" glyph-name="C" horiz-adv-x="1518" d="M797 1497Q1045 1497 1221 1356Q1397 1216 1427 971H1116Q1095 1085 1002 1156Q908 1227 796 1227Q608 1227 503 1089Q399 952 399 725Q399 508 502 372Q605 236 797 236Q937 236 1022 321T1128 563H1440Q1411
284 1237 124Q1063 -35 797 -35Q586 -35 421 61Q257 159 167 334Q78 510 78 725Q78 1061 275 1279Q472 1497 797 1497Z" />
<glyph unicode="D" glyph-name="D" horiz-adv-x="1518" d="M782 1462Q1073 1462 1255 1271Q1436 1081 1436 739Q1436 397 1259 198Q1082 0 782 0H141V1462H782ZM757 270Q911 270 1012 380Q1114 491 1114 710Q1114 964 1008 1077Q902 1192 701 1192H463V270H757Z" />
<glyph unicode="E" glyph-name="E" horiz-adv-x="1327" d="M1235 1462V1192H463V879H1171V629H463V270H1251V0H141V1462H1235Z" />
<glyph unicode="F" glyph-name="F" horiz-adv-x="1214" d="M1169 1462V1192H463V854H1075V604H463V0H141V1462H1169Z" />
<glyph unicode="G" glyph-name="G" horiz-adv-x="1554" d="M796 1497Q1034 1497 1210 1359Q1386 1222 1413 981H1106Q1075 1105 995 1166T797 1227Q605 1227 502 1088Q399 951 399 725Q399 512 501 374Q604 236 797 236Q952 236 1041 314T1145 551H821V791H1436V0H1231L1198
165Q1119 65 1020 15T796 -35Q587 -35 422 61Q257 158 167 334Q78 510 78 725Q78 1062 275 1280Q471 1497 796 1497Z" />
<glyph unicode="H" glyph-name="H" horiz-adv-x="1518" d="M463 1462V901H1055V1462H1376V0H1055V631H463V0H141V1462H463Z" />
<glyph unicode="I" glyph-name="I" horiz-adv-x="604" d="M463 1462V0H141V1462H463Z" />
<glyph unicode="J" glyph-name="J" horiz-adv-x="1139" d="M997 1462V451Q997 216 875 91T511 -35Q298 -35 163 85Q29 207 29 410V545H319V490Q319 345 366 290Q412 236 506 236Q589 236 633 281Q676 327 676 463V1462H997Z" />
<glyph unicode="K" glyph-name="K" horiz-adv-x="1479" d="M463 1462V856L1034 1462H1436L864 885L1491 0H1087L647 657L463 471V0H141V1462H463Z" />
<glyph unicode="L" glyph-name="L" horiz-adv-x="1214" d="M463 1462V270H1176V0H141V1462H463Z" />
<glyph unicode="M" glyph-name="M" horiz-adv-x="1858" d="M594 1462L936 457H940L1263 1458L1265 1462H1716V0H1415V1036H1411L1053 0H805L446 1026H442V0H141V1462H594Z" />
<glyph unicode="N" glyph-name="N" horiz-adv-x="1518" d="M461 1462L1071 481H1075V1462H1376V0H1055L446 979H442V0H141V1462H461Z" />
<glyph unicode="O" glyph-name="O" horiz-adv-x="1593" d="M797 1497Q1122 1497 1319 1278Q1516 1060 1516 725Q1516 398 1318 181Q1121 -35 797 -35Q585 -35 421 62Q256 160 167 334Q78 510 78 725Q78 1062 275 1280Q473 1497 797 1497ZM399 725Q399 508 502
372Q605 236 797 236Q986 236 1090 370Q1194 506 1194 725Q1194 957 1088 1091Q983 1227 795 1227Q608 1227 503 1090Q399 953 399 725Z" />
<glyph unicode="P" glyph-name="P" horiz-adv-x="1366" d="M811 1462Q1039 1462 1173 1333Q1307 1205 1307 993Q1307 782 1173 653Q1039 524 811 524H463V0H141V1462H811ZM722 774Q861 774 928 826T995 993Q995 1105 930 1158T723 1212H463V774H722Z" />
<glyph unicode="Q" glyph-name="Q" horiz-adv-x="1593" d="M797 1497Q1122 1497 1319 1279Q1516 1061 1516 725Q1516 567 1469 431T1325 186L1507 20L1358 -137L1151 51Q1079 9 991 -13T797 -35Q467 -35 272 184Q78 405 78 725Q78 1062 275 1280Q473 1497 797
1497ZM399 725Q399 510 502 370Q606 229 834 235Q907 235 926 256L788 381L938 541L1104 389Q1150 452 1172 537T1194 725Q1194 957 1089 1092Q984 1227 795 1227Q608 1227 503 1090Q399 953 399 725Z" />
<glyph unicode="R" glyph-name="R" horiz-adv-x="1479" d="M938 1462Q1114 1462 1236 1348Q1358 1234 1358 1058Q1358 919 1301 830T1126 692V688Q1228 661 1284 565Q1339 469 1344 271Q1348 74 1401 0H1079Q1065 35 1056 92T1041 230Q1026 447 968 508Q911 571
792 571H463V0H141V1462H938ZM822 801Q923 801 979 850T1036 1010Q1036 1115 982 1163T822 1212H463V801H822Z" />
<glyph unicode="S" glyph-name="S" horiz-adv-x="1329" d="M645 1497Q909 1497 1070 1374Q1230 1251 1230 1026H919Q912 1136 844 1191T632 1247Q533 1247 471 1204Q409 1160 409 1081Q409 1027 435 999Q460 973 541 942Q623 913 893 849Q984 827 1056 790T1177
700T1253 582T1279 434Q1279 222 1120 93Q960 -35 672 -35Q395 -35 222 101Q48 237 48 477V485H359Q360 350 450 282Q538 215 683 215Q748 215 800 227T890 262T948 319T968 397Q968 468 909 513T718 592Q633 611 558 631T413 672Q276 716 186 810Q97 907 97 1055Q97
1253 254 1374Q411 1497 645 1497Z" />
<glyph unicode="T" glyph-name="T" horiz-adv-x="1251" d="M1225 1462V1192H786V0H465V1192H27V1462H1225Z" />
<glyph unicode="U" glyph-name="U" horiz-adv-x="1518" d="M457 1462V544Q457 386 529 311T758 236Q926 236 993 309Q1061 383 1061 543V1462H1382V543Q1382 271 1223 118Q1065 -35 758 -35Q603 -35 487 3T292 115T175 297T135 543V1462H457Z" />
<glyph unicode="V" glyph-name="V" horiz-adv-x="1290" d="M315 1462L641 434H645L975 1462H1307L821 0H459L-16 1462H315Z" />
<glyph unicode="W" glyph-name="W" horiz-adv-x="1933" d="M328 1462L559 467H563L817 1462H1118L1368 455H1372L1612 1462H1927L1534 0H1214L967 995H963L719 0H393L6 1462H328Z" />
<glyph unicode="X" glyph-name="X" horiz-adv-x="1366" d="M401 1462L688 995L985 1462H1337L868 764L1378 0H995L676 506L350 0H-12L500 766L29 1462H401Z" />
<glyph unicode="Y" glyph-name="Y" horiz-adv-x="1366" d="M344 1462L686 885L1026 1462H1384L842 561V0H520V569L-18 1462H344Z" />
<glyph unicode="Z" glyph-name="Z" horiz-adv-x="1327" d="M1260 1462V1208L475 270H1280V0H47V254L831 1192H109V1462H1260Z" />
<glyph unicode="[" glyph-name="bracketleft" horiz-adv-x="682" d="M680 1497V1268H430V-143H680V-373H139V1497H680Z" />
<glyph unicode="\" glyph-name="backslash" horiz-adv-x="760" d="M211 1497L782 -35H548L-24 1497H211Z" />
<glyph unicode="]" glyph-name="bracketright" horiz-adv-x="682" d="M543 1497V-373H2V-143H252V1268H2V1497H543Z" />
<glyph unicode="^" glyph-name="asciicircum" horiz-adv-x="1229" d="M752 1434L1104 646H864L614 1208L365 645H125L477 1434H752Z" />
<glyph unicode="_" glyph-name="underscore" horiz-adv-x="1024" d="M1024 -154V-256H0V-154H1024Z" />
<glyph unicode="`" glyph-name="grave" horiz-adv-x="530" d="M222 1497L419 1206H216L-99 1497H222Z" />
<glyph unicode="a" glyph-name="a" horiz-adv-x="1176" d="M597 1087Q832 1087 946 1010T1061 793V225Q1061 193 1063 161T1069 97Q1078 34 1098 0H803Q787 48 782 101Q721 38 631 5T426 -29Q261 -29 164 53Q66 136 66 289Q66 437 158 515Q249 594 493 621Q578
629 633 639T716 662Q770 687 770 751Q770 787 761 813T729 857T671 884T583 893Q492 893 445 855T389 733H98Q110 907 241 997Q373 1087 597 1087ZM356 301Q356 238 398 202T535 166Q652 166 711 226T770 405V518Q744 496 701 486Q680 481 642 475T548 460Q448
447 402 409T356 301Z" />
<glyph unicode="b" glyph-name="b" horiz-adv-x="1251" d="M401 1462V930H406Q454 1002 541 1044T739 1087Q925 1087 1051 936Q1178 787 1178 530Q1178 275 1051 123Q925 -29 738 -29Q609 -29 522 13T391 135H387V0H111V1462H401ZM391 528Q391 375 458 283Q525
190 639 190Q752 190 820 283Q887 375 887 528Q887 681 821 774Q757 868 637 868Q526 868 458 776Q391 685 391 528Z" />
<glyph unicode="c" glyph-name="c" horiz-adv-x="1176" d="M618 1087Q824 1087 963 981Q1104 874 1116 686H831Q805 868 616 868Q498 868 434 772Q369 675 369 524Q369 372 433 281Q497 190 610 190Q707 190 767 245T842 406H1122Q1093 196 958 83Q824 -29 612
-29Q375 -29 227 122Q78 274 78 514Q78 771 224 929Q371 1087 618 1087Z" />
<glyph unicode="d" glyph-name="d" horiz-adv-x="1251" d="M1143 1462V0H866V135H862Q814 54 732 13T541 -29Q324 -29 195 130Q66 290 66 539Q66 776 193 931Q320 1087 535 1087Q635 1087 716 1048T848 930H852V1462H1143ZM356 531Q356 383 425 286Q494 190 612
190Q733 190 797 279T862 532Q862 687 799 777Q736 868 611 868Q490 868 423 777Q356 688 356 531Z" />
<glyph unicode="e" glyph-name="e" horiz-adv-x="1176" d="M600 1087Q835 1087 975 925Q1116 764 1116 513L1114 459H350Q356 321 421 256T609 190Q688 190 755 230Q822 270 840 328H1096Q1036 147 914 59T600 -29Q356 -29 207 126Q59 280 59 528Q59 766 210 926Q362
1087 600 1087ZM823 643Q802 760 748 814T590 868Q484 868 422 809T350 643H823Z" />
<glyph unicode="f" glyph-name="f" horiz-adv-x="682" d="M528 1462Q558 1462 608 1459L682 1454V1237Q623 1243 577 1243Q515 1243 490 1216Q465 1191 465 1108V1059H666V864H465V0H174V864H0V1059H174V1132Q174 1296 269 1379Q366 1462 528 1462Z" />
<glyph unicode="g" glyph-name="g" horiz-adv-x="1251" d="M532 1087Q649 1087 724 1045T848 918H852V1059H1128V59Q1128 -154 992 -277Q858 -401 581 -401Q393 -401 260 -311Q127 -223 113 -61H401Q421 -139 477 -173T618 -207Q730 -207 791 -140T852 48V195H848Q805
117 722 74T530 31Q315 31 197 173Q78 316 78 563Q78 788 202 937Q326 1087 532 1087ZM369 567Q369 492 385 434T431 334T504 272T604 250Q719 250 785 334Q852 417 852 544Q852 700 790 784T603 868Q495 868 432 786Q369 703 369 567Z" />
<glyph unicode="h" glyph-name="h" horiz-adv-x="1214" d="M401 1462V911H408Q454 990 538 1038Q623 1087 719 1087Q820 1087 892 1062T1012 984T1081 852T1104 662V0H813V607Q813 731 771 794T627 858Q506 858 454 787T401 565V0H111V1462H401Z" />
<glyph unicode="i" glyph-name="i" horiz-adv-x="528" d="M410 1462V1223H119V1462H410ZM410 1059V0H119V1059H410Z" />
<glyph unicode="j" glyph-name="j" horiz-adv-x="569" d="M428 1462V1223H137V1462H428ZM428 1059V-62Q428 -228 345 -300Q263 -373 57 -373Q32 -373 9 -371T-39 -365V-125Q-26 -130 -10 -131T24 -133Q88 -133 112 -109T137 -43V1059H428Z" />
<glyph unicode="k" glyph-name="k" horiz-adv-x="1176" d="M428 1462V678L795 1059H1139L739 670L1184 0H831L541 473L428 365V0H137V1462H428Z" />
<glyph unicode="l" glyph-name="l" horiz-adv-x="528" d="M410 1462V0H119V1462H410Z" />
<glyph unicode="m" glyph-name="m" horiz-adv-x="1855" d="M721 1087Q839 1087 916 1042T1030 911Q1090 996 1172 1041T1351 1087Q1447 1087 1519 1062T1640 990T1712 874T1737 718V0H1446V612Q1446 758 1403 807Q1361 858 1268 858Q1169 858 1121 793T1073 599V0H782V652Q782
757 742 807T607 858Q524 858 467 794Q410 729 410 621V0H119V1059H393V915H397Q460 1003 540 1045T721 1087Z" />
<glyph unicode="n" glyph-name="n" horiz-adv-x="1214" d="M718 1087Q921 1087 1012 984Q1104 881 1104 662V0H813V607Q813 731 771 794T627 858Q506 858 454 787T401 565V0H111V1059H387V911H393Q447 996 531 1041T718 1087Z" />
<glyph unicode="o" glyph-name="o" horiz-adv-x="1251" d="M625 1087Q874 1087 1024 933Q1174 780 1174 528Q1174 275 1022 123Q870 -29 625 -29Q379 -29 228 124Q78 277 78 528Q78 779 226 933Q374 1087 625 1087ZM369 528Q369 360 437 275T625 190Q750 190 816
278T883 528Q883 607 867 670T818 777T737 844T623 868Q506 868 438 784T369 528Z" />
<glyph unicode="p" glyph-name="p" horiz-adv-x="1251" d="M707 1087Q932 1087 1060 929Q1188 771 1188 518Q1188 283 1062 127Q936 -29 723 -29Q626 -29 542 12T406 131H401V-373H111V1059H387V924H391Q443 1008 523 1047T707 1087ZM391 526Q391 374 456 282Q521
190 645 190Q766 190 831 278T897 526Q897 678 832 773Q767 868 641 868Q520 868 456 779T391 526Z" />
<glyph unicode="q" glyph-name="q" horiz-adv-x="1251" d="M541 1087Q650 1087 733 1046T862 924H866V1059H1143V-373H852V133H848Q824 93 789 63T711 12T618 -18T514 -29Q329 -29 197 115Q66 260 66 521Q66 768 194 928Q323 1087 541 1087ZM356 528Q356 447 373
385T423 279T502 213T608 190Q731 190 796 277T862 524Q862 674 798 771Q734 868 612 868Q489 868 422 774Q356 681 356 528Z" />
<glyph unicode="r" glyph-name="r" horiz-adv-x="797" d="M728 1087Q766 1087 793 1077V807Q768 812 745 814T689 817Q541 817 471 727Q401 638 401 486V0H111V1059H387V862H391Q438 967 528 1026Q619 1087 728 1087Z" />
<glyph unicode="s" glyph-name="s" horiz-adv-x="1100" d="M545 1087Q762 1087 879 1002T1012 750H735Q729 825 680 859T536 893Q451 893 413 868T375 795Q375 746 425 714Q476 682 629 654Q872 608 956 533Q1040 459 1040 339Q1040 159 908 65Q778 -29 557 -29Q337
-29 202 64Q68 159 59 344H336Q336 259 399 213Q464 166 559 166Q601 166 636 175T697 202T736 245T750 301Q750 356 681 391Q646 408 584 426T428 464Q337 482 272 507T165 566T104 646T84 748Q84 917 202 1002T545 1087Z" />
<glyph unicode="t" glyph-name="t" horiz-adv-x="721" d="M479 1376V1059H692V864H479V333Q479 267 503 242Q528 217 602 217Q652 217 692 225V-2Q656 -8 612 -10T524 -12Q334 -12 261 52Q188 116 188 233V864H12V1059H188V1376H479Z" />
<glyph unicode="u" glyph-name="u" horiz-adv-x="1214" d="M401 1059V452Q401 392 411 346T443 267T501 218T588 201Q708 201 760 273T813 494V1059H1104V0H827V147H821Q794 103 758 70T679 15T591 -18T496 -29Q397 -29 325 -5T205 71T134 203T111 396V1059H401Z" />
<glyph unicode="v" glyph-name="v" horiz-adv-x="1065" d="M315 1059L539 336H543L766 1059H1055L696 0H373L10 1059H315Z" />
<glyph unicode="w" glyph-name="w" horiz-adv-x="1667" d="M319 1059L514 340H518L694 1059H977L1157 342H1161L1356 1059H1655L1320 0H1022L834 711H829L649 0H348L12 1059H319Z" />
<glyph unicode="x" glyph-name="x" horiz-adv-x="1100" d="M365 1059L551 782L735 1059H1057L709 563L1100 0H768L547 334L326 0H0L381 557L33 1059H365Z" />
<glyph unicode="y" glyph-name="y" horiz-adv-x="1063" d="M299 1059L539 334H543L774 1059H1075L625 -153Q585 -259 503 -316T287 -373Q255 -373 230 -373T181 -371T136 -367T91 -362V-123Q144 -129 178 -131T243 -133Q306 -133 339 -95T373 0Q373 15 371 29T360
66L-13 1059H299Z" />
<glyph unicode="z" glyph-name="z" horiz-adv-x="1063" d="M979 1059V840L428 219H1018V0H45V219L596 840H86V1059H979Z" />
<glyph unicode="{" glyph-name="braceleft" horiz-adv-x="948" d="M399 1327Q329 1303 297 1255T264 1120H399V805H109V1133Q109 1256 189 1350Q269 1442 399 1462V1327ZM836 1327Q761 1303 731 1252T700 1120H836V805H545V1132Q545 1255 625 1350Q706 1444 836
1462V1327Z" />
<glyph unicode="|" glyph-name="bar" horiz-adv-x="457" d="M338 1610V-438H119V1610H338Z" />
<glyph unicode="}" glyph-name="braceright" horiz-adv-x="948" d="M401 1462V1130Q401 1013 321 918Q242 825 111 805V940Q181 964 213 1012T246 1147H111V1462H401ZM838 1462V1140Q838 1012 758 917Q679 823 547 805V940Q617 964 649 1012T682 1147H547V1462H838Z" />
<glyph unicode="~" glyph-name="asciitilde" horiz-adv-x="1229" d="M1092 514Q1018 409 960 373Q902 338 836 338Q743 338 610 408Q476 477 392 477Q338 477 297 443T219 330L137 520Q188 614 251 655T393 696Q436 696 491 681T625 628Q638 623 660 613T716 587Q783
557 829 557Q870 557 911 586Q951 614 1010 705L1092 514Z" />
</font>
</defs>
</svg>
